<?xml version="1.0" encoding="UTF-8"?>
<svg xmlns="http://www.w3.org/2000/svg" width="800" height="1040" viewBox="0 0 800 1040" role="img" aria-labelledby="dap-title dap-desc">
  <title id="dap-title">DAP — Gaseosa Carbonatada 400ml (Retornable)</title>
  <desc id="dap-desc">Diagrama analítico de proceso vertical con operaciones, transporte, inspección y almacenamiento.</desc>
  <defs>
    <style type="text/css"><![CDATA[
      .title { font-family: Arial, Helvetica, sans-serif; font-size: 18px; font-weight: bold; fill: #1E293B; }
      .step-text { font-family: Arial, Helvetica, sans-serif; font-size: 13px; fill: #1E293B; }
      .legend-title { font-family: Arial, Helvetica, sans-serif; font-size: 12px; font-weight: bold; fill: #1E293B; }
      .legend-text { font-family: Arial, Helvetica, sans-serif; font-size: 11px; fill: #334155; }
      .counts { font-family: Arial, Helvetica, sans-serif; font-size: 11px; fill: #475569; }
    ]]></style>
  </defs>
  <rect width="800" height="1040" fill="#FFFFFF"/>

  <text x="400" y="36" text-anchor="middle" class="title">DAP — Gaseosa Carbonatada 400ml (Retornable)</text>

  <g stroke="#94A3B8" stroke-width="1.25" fill="none" stroke-linecap="round">
    <line x1="50" y1="100" x2="50" y2="114"/>
    <line x1="50" y1="138" x2="50" y2="152"/>
    <line x1="50" y1="176" x2="50" y2="190"/>
    <line x1="50" y1="214" x2="50" y2="228"/>
    <line x1="50" y1="252" x2="50" y2="266"/>
    <line x1="50" y1="290" x2="50" y2="304"/>
    <line x1="50" y1="328" x2="50" y2="342"/>
    <line x1="50" y1="366" x2="50" y2="380"/>
    <line x1="50" y1="404" x2="50" y2="418"/>
    <line x1="50" y1="442" x2="50" y2="456"/>
    <line x1="50" y1="480" x2="50" y2="494"/>
    <line x1="50" y1="518" x2="50" y2="532"/>
    <line x1="50" y1="556" x2="50" y2="570"/>
    <line x1="50" y1="594" x2="50" y2="608"/>
    <line x1="50" y1="632" x2="50" y2="646"/>
    <line x1="50" y1="670" x2="50" y2="684"/>
    <line x1="50" y1="708" x2="50" y2="722"/>
    <line x1="50" y1="746" x2="50" y2="760"/>
    <line x1="50" y1="784" x2="50" y2="798"/>
    <line x1="50" y1="822" x2="50" y2="836"/>
    <line x1="50" y1="860" x2="50" y2="874"/>
  </g>

  <g>
    <circle cx="50" cy="88" r="12" fill="#FFFFFF" stroke="#A8201A" stroke-width="2"/>
    <text x="78" y="93" class="step-text">Saneamiento previo</text>
  </g>
  <g>
    <circle cx="50" cy="126" r="12" fill="#FFFFFF" stroke="#A8201A" stroke-width="2"/>
    <text x="78" y="131" class="step-text">Recepción de agua</text>
  </g>
  <g>
    <circle cx="50" cy="164" r="12" fill="#FFFFFF" stroke="#A8201A" stroke-width="2"/>
    <text x="78" y="169" class="step-text">Tratamiento agua</text>
  </g>
  <g>
    <rect x="38" y="190" width="24" height="24" rx="2" fill="#FFFFFF" stroke="#059669" stroke-width="2"/>
    <text x="78" y="207" class="step-text">Control calidad agua</text>
  </g>
  <g>
    <circle cx="50" cy="240" r="12" fill="#FFFFFF" stroke="#A8201A" stroke-width="2"/>
    <text x="78" y="245" class="step-text">Preparación jarabe</text>
  </g>
  <g>
    <circle cx="50" cy="278" r="12" fill="#FFFFFF" stroke="#A8201A" stroke-width="2"/>
    <text x="78" y="283" class="step-text">Mezcla con concentrado</text>
  </g>
  <g>
    <rect x="38" y="304" width="24" height="24" rx="2" fill="#FFFFFF" stroke="#059669" stroke-width="2"/>
    <text x="78" y="321" class="step-text">Verificación jarabe</text>
  </g>
  <g>
    <path d="M 34 354 L 62 354 M 56 348 L 66 354 L 56 360" fill="none" stroke="#2563EB" stroke-width="2" stroke-linejoin="round"/>
    <text x="78" y="359" class="step-text">Envío a tanque</text>
  </g>
  <g>
    <circle cx="50" cy="392" r="12" fill="#FFFFFF" stroke="#A8201A" stroke-width="2"/>
    <text x="78" y="397" class="step-text">Enfriamiento</text>
  </g>
  <g>
    <circle cx="50" cy="430" r="12" fill="#FFFFFF" stroke="#A8201A" stroke-width="2"/>
    <text x="78" y="435" class="step-text">Carbonatación</text>
  </g>
  <g>
    <path d="M 34 468 L 62 468 M 56 462 L 66 468 L 56 474" fill="none" stroke="#2563EB" stroke-width="2" stroke-linejoin="round"/>
    <text x="78" y="473" class="step-text">Envío a llenado</text>
  </g>
  <g>
    <circle cx="50" cy="506" r="12" fill="#FFFFFF" stroke="#A8201A" stroke-width="2"/>
    <text x="78" y="511" class="step-text">Recepción botellas</text>
  </g>
  <g>
    <circle cx="50" cy="544" r="12" fill="#FFFFFF" stroke="#A8201A" stroke-width="2"/>
    <text x="78" y="549" class="step-text">Lavado botellas</text>
  </g>
  <g>
    <rect x="38" y="570" width="24" height="24" rx="2" fill="#FFFFFF" stroke="#059669" stroke-width="2"/>
    <text x="78" y="587" class="step-text">Inspección botellas</text>
  </g>
  <g>
    <circle cx="50" cy="620" r="12" fill="#FFFFFF" stroke="#A8201A" stroke-width="2"/>
    <text x="78" y="625" class="step-text">Llenado 400ml</text>
  </g>
  <g>
    <circle cx="50" cy="658" r="12" fill="#FFFFFF" stroke="#A8201A" stroke-width="2"/>
    <text x="78" y="663" class="step-text">Tapado corona</text>
  </g>
  <g>
    <rect x="38" y="684" width="24" height="24" rx="2" fill="#FFFFFF" stroke="#059669" stroke-width="2"/>
    <text x="78" y="701" class="step-text">Verificación nivel</text>
  </g>
  <g>
    <circle cx="50" cy="734" r="12" fill="#FFFFFF" stroke="#A8201A" stroke-width="2"/>
    <text x="78" y="739" class="step-text">Codificación lote</text>
  </g>
  <g>
    <rect x="38" y="760" width="24" height="24" rx="2" fill="#FFFFFF" stroke="#059669" stroke-width="2"/>
    <text x="78" y="777" class="step-text">Control final</text>
  </g>
  <g>
    <path d="M 34 810 L 62 810 M 56 804 L 66 810 L 56 816" fill="none" stroke="#2563EB" stroke-width="2" stroke-linejoin="round"/>
    <text x="78" y="815" class="step-text">Transporte bodega</text>
  </g>
  <g>
    <circle cx="50" cy="848" r="12" fill="#FFFFFF" stroke="#A8201A" stroke-width="2"/>
    <text x="78" y="853" class="step-text">Empaque canastillas</text>
  </g>
  <g>
    <polygon points="50,898 38,874 62,874" fill="#FFFFFF" stroke="#D97706" stroke-width="2" stroke-linejoin="round"/>
    <text x="78" y="889" class="step-text">Almacenamiento</text>
  </g>

  <rect x="40" y="920" width="720" height="100" rx="6" fill="#F8FAFC" stroke="#E2E8F0" stroke-width="1"/>
  <text x="400" y="944" text-anchor="middle" class="legend-title">Leyenda — símbolos ASME (diagrama de procesos)</text>

  <g transform="translate(60,958)">
    <circle cx="10" cy="0" r="9" fill="#FFFFFF" stroke="#A8201A" stroke-width="2"/>
    <text x="28" y="4" class="legend-text">Operación (○)</text>
  </g>
  <g transform="translate(230,958)">
    <path d="M 0 0 L 22 0 M 17 -5 L 24 0 L 17 5" fill="none" stroke="#2563EB" stroke-width="2"/>
    <text x="34" y="4" class="legend-text">Transporte (→)</text>
  </g>
  <g transform="translate(420,949)">
    <rect x="0" y="0" width="18" height="18" rx="2" fill="#FFFFFF" stroke="#059669" stroke-width="2"/>
    <text x="28" y="13" class="legend-text">Inspección (□)</text>
  </g>
  <g transform="translate(610,958)">
    <polygon points="10,8 0,-8 20,-8" fill="#FFFFFF" stroke="#D97706" stroke-width="2"/>
    <text x="28" y="4" class="legend-text">Almacenamiento (▽)</text>
  </g>

  <text x="400" y="1008" text-anchor="middle" class="counts">Resumen (25 pasos detallados): O=16 · T=4 · I=5 · A=1</text>
</svg>
